<?xml version="1.0" encoding="utf-8"?>
<!-- Generator: Adobe Illustrator 16.0.4, SVG Export Plug-In . SVG Version: 6.00 Build 0)  -->
<!DOCTYPE svg PUBLIC "-//W3C//DTD SVG 1.1//EN" "http://www.w3.org/Graphics/SVG/1.1/DTD/svg11.dtd">
<svg version="1.1" id="Layer_1" xmlns="http://www.w3.org/2000/svg" xmlns:xlink="http://www.w3.org/1999/xlink" x="0px" y="0px"
	 width="1624px" height="340px" viewBox="126.5 253.445 1624 340" enable-background="new 126.5 253.445 1624 340"
	 xml:space="preserve">
<g>
	<g>
		<g>
			<polygon points="723.188,533.498 723.159,387.125 665.534,387.142 665.57,581.344 813.159,581.315 813.15,533.48 			"/>
			<path d="M586.362,387.156h0.003l0.022,114.564c0.002,10.76-2.821,19.113-8.438,24.942c-5.631,5.881-13.437,8.841-23.339,8.843
				c-10.037-0.003-17.856-2.984-23.503-8.949c-5.586-5.938-8.445-14.196-8.447-24.827l-0.022-114.563l-57.525,0.015l0.022,111.798
				c0.003,9.54,1.784,20.494,5.365,32.83c2.188,7.672,6.277,15.144,12.285,22.371c6,7.225,12.597,12.844,19.806,16.776
				c7.209,3.925,16.157,6.562,26.873,7.86c10.742,1.349,20.631,1.999,29.705,1.995c15.729-0.002,29.139-2.188,40.327-6.478
				c8.095-3.135,15.784-8.467,23.128-16.106c7.325-7.646,12.704-16.604,16.138-26.774c3.438-10.214,5.168-21.033,5.165-32.509
				l-0.021-111.798L586.362,387.156z"/>
			<polygon points="971.65,387.084 796.459,387.118 796.468,435.111 855.242,435.099 855.271,581.311 912.88,581.298 
				912.852,435.085 971.657,435.074 			"/>
			<polygon points="1743.117,386.937 1679.496,386.952 1641.861,452.527 1604.182,386.966 1540.188,386.978 1612.857,499.834 
				1612.877,581.169 1670.643,581.151 1670.627,499.819 			"/>
			<path d="M1161.658,387.048l-95.805,0.021l0.036,194.206l57.874-0.014l-0.013-72.066l31.522-0.008
				c23.228-0.004,40.514-5.534,51.853-16.559c11.319-11.023,16.977-26.359,16.973-45.984c-0.002-19.04-5.215-33.771-15.604-44.104
				C1198.149,392.2,1182.484,387.048,1161.658,387.048z M1161.265,463.827c-4.513,4.036-12.29,6.021-23.41,6.022l-14.109,0.006
				l-0.006-43.316l16.432-0.004c10.748,0,18.096,2.121,21.968,6.373c3.902,4.191,5.87,9.394,5.869,15.496
				C1168.009,454.651,1165.756,459.8,1161.265,463.827z"/>
			<polygon points="983.49,387.084 983.53,581.283 1041.252,581.273 1041.217,387.076 			"/>
			<path d="M1446.281,386.999l-60.936,168.861l-0.002-22.483l-89.938,0.017l-0.027-146.366l-57.688,0.007h-0.002l0.036,194.204
				l138.474-0.026l-0.003,0.008l58.901-0.016l9.032-32.058l65.67-0.014l9.149,32.056l60.312-0.009l-70.169-194.192L1446.281,386.999
				z M1456.575,507.145l20.502-69.83l20.646,69.821L1456.575,507.145z"/>
		</g>
		<polygon points="220.943,543.512 220.906,349.559 221.783,349.563 252.869,541.066 331.039,535.074 360.831,349.538 
			361.699,349.532 361.731,532.721 443.436,526.459 443.389,261.72 319.967,261.744 291.758,459.486 290.888,459.486 
			265.226,261.751 139.205,261.778 139.256,549.773 		"/>
		<g>
			<rect x="465.111" y="304.878" fill="#FFCD03" width="425.196" height="31.915"/>
			<rect x="890.981" y="304.878" fill="#EF3E35" width="425.197" height="31.915"/>
			<rect x="1316.525" y="304.878" fill="#73C16B" width="425.197" height="31.915"/>
		</g>
	</g>
	<polygon fill="#FFCE09" points="220.945,554.57 220.951,581.485 139.264,581.5 139.258,560.748 140.7,560.645 	"/>
	<polygon fill="#73C26C" points="443.432,537.759 443.438,581.479 361.751,581.5 361.744,543.962 403.111,540.819 	"/>
	<polygon fill="#EF4036" points="323.172,581.5 328.972,545.734 315.816,546.719 254.613,551.362 259.525,581.5 	"/>
</g>
</svg>
